<?xml version="1.0" encoding="UTF-8"?>
<svg id="Layer_1" data-name="Layer 1" xmlns="http://www.w3.org/2000/svg" viewBox="0 0 174.63 64.84">
  <defs>
    <style>
      .cls-1 {
        fill: #fff;
      }

      .cls-2 {
        fill: #db0d0d;
        fill-rule: evenodd;
      }
    </style>
  </defs>
  <path class="cls-2" d="M73.6,0h42.9c10.48,0,19.09,8.42,19.4,18.82L146.68,0l26.96,47.04h-25.32l11.25-2.79c1.02-.25,1.65-1.28,1.4-2.31,0,0,0,0,0-.01l-2.94-11.87-21.61,5.36c-.07-.06-.15-.11-.23-.15l19.2-11.53-2.32-3.86-19.82,11.9,2.04,3.39c-.69.18-1.11.88-.94,1.57.18.69.88,1.12,1.57.94.06,0,.12-.03.17-.05l2.33,9.41h-18.7l6.1-10.64c-2.77,1.53-5.95,2.4-9.32,2.4h-24.96v8.24h-17.94v-26.17h42.9c.81,0,1.47-.67,1.47-1.47s-.66-1.47-1.47-1.47h-42.9v-6.17l-10.46,18.13-10.36,17.94-10.36-17.94-1.72-2.99-1.73,2.99-10.36,17.94L.99,0h20.71l6.91,11.96,1.73-2.99L35.52,0h10.35l5.18,8.97,1.73,2.99L59.69,0h13.91ZM137.61,29.95l.53,3.31-2.56,1.54-.54-3.31,2.57-1.54h0ZM153.01,20.71l.53,3.3-2.56,1.54-.54-3.3,2.57-1.54h0ZM147.88,23.79l.53,3.31-2.57,1.54-.53-3.31,2.57-1.54ZM142.74,26.87l.54,3.31-2.57,1.54-.53-3.31,2.56-1.54h0ZM140.97,35.4l-.68,4.4-2.77.69.68-4.4,2.77-.69ZM146.5,34.03l-.68,4.4-2.77.69.68-4.4,2.77-.69ZM152.03,32.66l-.68,4.4-2.77.68.68-4.39s2.77-.69,2.77-.69ZM157.56,31.29l-.68,4.4-2.77.68.68-4.39,2.77-.69Z"/>
  <path class="cls-1" d="M10.65,64.74l2.86-8.69h-2.25l-1.68,6.39-1.7-6.39h-2.16l-1.66,6.39-1.7-6.39H0l2.84,8.69h2.29l1.63-6.01,1.62,6.01s2.27,0,2.27,0ZM18.39,55.98c-2.68,0-4.69,1.87-4.69,4.4s2.01,4.46,4.69,4.46,4.7-1.93,4.7-4.46-2.01-4.4-4.7-4.4ZM18.42,57.83c1.34,0,2.4,1.1,2.4,2.56s-1.06,2.6-2.4,2.6-2.46-1.13-2.46-2.6,1.12-2.56,2.46-2.56ZM29.5,64.74h2.5l-1.82-2.87c1.02-.51,1.58-1.46,1.58-2.79,0-1.94-1.32-3.03-3.62-3.03h-3.88v8.69h2.21v-2.45h1.74l1.29,2.45ZM26.47,60.55v-2.76h1.67c.96,0,1.52.46,1.52,1.36s-.56,1.4-1.52,1.4c0,0-1.67,0-1.67,0ZM35.45,62.89v-6.84h-2.21v8.69h5.9v-1.85h-3.69ZM40.19,56.05v8.69h3.65c2.79,0,4.7-1.78,4.7-4.35s-1.88-4.34-4.61-4.34h-3.74ZM42.4,57.81h1.48c1.4,0,2.42,1.06,2.42,2.6s-.97,2.56-2.32,2.56h-1.58v-5.16ZM52.59,56.05v8.69h2.21v-2.45h1.57c2.23,0,3.5-1.18,3.5-3.21s-1.27-3.03-3.5-3.03h-3.78ZM54.8,57.79h1.46c.97,0,1.53.46,1.53,1.36s-.56,1.4-1.53,1.4h-1.46v-2.76ZM66.26,64.74h2.51l-1.82-2.87c1.01-.51,1.57-1.46,1.57-2.79,0-1.94-1.31-3.03-3.61-3.03h-3.88v8.69h2.21v-2.45h1.73l1.29,2.45ZM63.24,60.55v-2.76h1.67c.96,0,1.51.46,1.51,1.36s-.55,1.4-1.51,1.4c0,0-1.67,0-1.67,0ZM76.81,57.79v-1.74h-6.8v8.69h6.94v-1.74h-4.73v-1.75h4.14v-1.74h-4.14v-1.72s4.59,0,4.59,0ZM87.91,64.74v-8.7h-2.4l-2.36,5.17-2.36-5.17h-2.42v8.7h1.98v-5.65l2.08,4.78h1.44l2.08-4.78v5.65s1.96,0,1.96,0ZM91.87,64.74v-8.69h-2.2v8.69h2.2ZM100.41,57.79v-1.74h-6.8v8.69h6.94v-1.74h-4.73v-1.75h4.15v-1.74h-4.15v-1.72s4.59,0,4.59,0ZM107.21,64.74h2.51l-1.83-2.87c1.02-.51,1.58-1.46,1.58-2.79,0-1.94-1.32-3.03-3.61-3.03h-3.88v8.69h2.2v-2.45h1.74l1.29,2.45ZM104.18,60.55v-2.76h1.68c.95,0,1.51.46,1.51,1.36s-.56,1.4-1.51,1.4c0,0-1.68,0-1.68,0ZM117.76,57.79v-1.74h-6.8v8.69h6.94v-1.74h-4.73v-1.75h4.14v-1.74h-4.14v-1.72s4.59,0,4.59,0ZM127.97,63.14l.62,1.6h2.36l-3.66-8.69h-2.27l-3.75,8.69h2.27l.63-1.6h3.8ZM127.33,61.46h-2.51l1.27-3.21s1.24,3.21,1.24,3.21ZM136.99,64.74h2.51l-1.83-2.87c1.02-.51,1.58-1.46,1.58-2.79,0-1.94-1.31-3.03-3.61-3.03h-3.88v8.69h2.2v-2.45h1.74l1.29,2.45h0ZM133.96,60.55v-2.76h1.68c.95,0,1.51.46,1.51,1.36s-.56,1.4-1.51,1.4c0,0-1.68,0-1.68,0ZM147.38,57.83v-1.79h-7.42v1.79h2.59v6.91h2.21v-6.91h2.62ZM150.53,64.74v-8.69h-2.21v8.69h2.21ZM155.6,55.95c-2.08,0-3.46,1.02-3.46,2.62,0,3.08,4.59,2.16,4.59,3.7,0,.49-.43.75-1.13.75-.9,0-2.24-.52-3.13-1.3l-.86,1.7c1.03.85,2.52,1.39,3.97,1.39,1.94,0,3.47-.92,3.47-2.65,0-3.14-4.59-2.29-4.59-3.79,0-.42.39-.63.96-.63.71,0,1.86.37,2.78.9l.83-1.72c-.89-.58-2.17-.97-3.43-.97ZM166.9,57.83v-1.79h-7.42v1.79h2.59v6.91h2.21v-6.91h2.62ZM171.18,55.95c-2.09,0-3.46,1.02-3.46,2.62,0,3.08,4.59,2.16,4.59,3.7,0,.49-.44.75-1.13.75-.91,0-2.25-.52-3.14-1.3l-.86,1.7c1.03.85,2.52,1.39,3.97,1.39,1.94,0,3.48-.92,3.48-2.65,0-3.14-4.59-2.29-4.59-3.79,0-.42.38-.63.95-.63.71,0,1.86.37,2.78.9l.83-1.72c-.89-.58-2.17-.97-3.42-.97h0Z"/>
</svg>