<svg xmlns="http://www.w3.org/2000/svg" width="176" height="66"><g fill="none" fill-rule="evenodd"><path fill="#DB0D0D" d="M73.98.36H116.88c10.48 0 19.09 8.42 19.4 18.82L147.06.37l26.96 47.04H148.7l11.25-2.79a1.91 1.91 0 001.4-2.32l-2.94-11.87-21.61 5.36c-.07-.06-.15-.11-.23-.15l19.2-11.53-2.32-3.86-19.82 11.9 2.04 3.39c-.69.18-1.11.88-.94 1.57.18.69.88 1.12 1.57.94.06-.01.12-.03.17-.05l2.33 9.41h-18.7l6.1-10.64c-2.77 1.53-5.95 2.4-9.32 2.4H91.92v8.24H73.98V21.24h42.9c.81 0 1.47-.67 1.47-1.47 0-.81-.66-1.47-1.47-1.47H73.98v-6.17L63.52 30.26 53.16 48.2 42.8 30.26l-1.72-2.99-1.73 2.99L28.99 48.2 1.37.36h20.71l6.91 11.96 1.73-2.99L35.9.36h10.35l5.18 8.97 1.73 2.99L60.07.36h13.91zm64.01 29.95l.53 3.31-2.56 1.54-.54-3.31 2.57-1.54zm15.4-9.24l.53 3.3-2.56 1.54-.54-3.3 2.57-1.54zm-5.13 3.08l.53 3.31-2.57 1.54-.53-3.31 2.57-1.54zm-5.14 3.08l.54 3.31-2.57 1.54-.53-3.31 2.56-1.54zm-1.77 8.53l-.68 4.4-2.77.69.68-4.4 2.77-.69zm5.53-1.37l-.68 4.4-2.77.69.68-4.4 2.77-.69zm5.53-1.37l-.68 4.4-2.77.68.68-4.39 2.77-.69zm5.53-1.37l-.68 4.4-2.77.68.68-4.39 2.77-.69z"/><path fill="#000" fill-rule="nonzero" d="M11.03 65.1l2.86-8.69h-2.25L9.96 62.8l-1.7-6.39H6.1L4.44 62.8l-1.7-6.39H.38l2.84 8.69h2.29l1.63-6.01 1.62 6.01h2.27zm7.74-8.76c-2.68 0-4.69 1.87-4.69 4.4 0 2.54 2.01 4.46 4.69 4.46 2.69 0 4.7-1.93 4.7-4.46 0-2.52-2.01-4.4-4.7-4.4zm.03 1.85c1.34 0 2.4 1.1 2.4 2.56 0 1.47-1.06 2.6-2.4 2.6-1.33 0-2.46-1.13-2.46-2.6 0-1.46 1.12-2.56 2.46-2.56zm11.08 6.91h2.5l-1.82-2.87c1.02-.51 1.58-1.46 1.58-2.79 0-1.94-1.32-3.03-3.62-3.03h-3.88v8.69h2.21v-2.45h1.74l1.29 2.45zm-3.03-4.19v-2.76h1.67c.96 0 1.52.46 1.52 1.36 0 .92-.56 1.4-1.52 1.4h-1.67zm8.98 2.34v-6.84h-2.21v8.69h5.9v-1.85h-3.69zm4.74-6.84v8.69h3.65c2.79 0 4.7-1.78 4.7-4.35 0-2.58-1.88-4.34-4.61-4.34h-3.74zm2.21 1.76h1.48c1.4 0 2.42 1.06 2.42 2.6 0 1.52-.97 2.56-2.32 2.56h-1.58v-5.16zm10.19-1.76v8.69h2.21v-2.45h1.57c2.23 0 3.5-1.18 3.5-3.21 0-1.94-1.27-3.03-3.5-3.03h-3.78zm2.21 1.74h1.46c.97 0 1.53.46 1.53 1.36 0 .92-.56 1.4-1.53 1.4h-1.46v-2.76zm11.46 6.95h2.51l-1.82-2.87c1.01-.51 1.57-1.46 1.57-2.79 0-1.94-1.31-3.03-3.61-3.03h-3.88v8.69h2.21v-2.45h1.73l1.29 2.45zm-3.02-4.19v-2.76h1.67c.96 0 1.51.46 1.51 1.36 0 .92-.55 1.4-1.51 1.4h-1.67zm13.57-2.76v-1.74h-6.8v8.69h6.94v-1.74H72.6v-1.75h4.14v-1.74H72.6v-1.72h4.59zm11.1 6.95v-8.7h-2.4l-2.36 5.17-2.36-5.17h-2.42v8.7h1.98v-5.65l2.08 4.78h1.44l2.08-4.78.01 5.65h1.95zm3.96 0v-8.69h-2.2v8.69h2.2zm8.54-6.95v-1.74h-6.8v8.69h6.94v-1.74H96.2v-1.75h4.15v-1.74H96.2v-1.72h4.59zm6.8 6.95h2.51l-1.83-2.87c1.02-.51 1.58-1.46 1.58-2.79 0-1.94-1.32-3.03-3.61-3.03h-3.88v8.69h2.2v-2.45h1.74l1.29 2.45zm-3.03-4.19v-2.76h1.68c.95 0 1.51.46 1.51 1.36 0 .92-.56 1.4-1.51 1.4h-1.68zm13.58-2.76v-1.74h-6.8v8.69h6.94v-1.74h-4.73v-1.75h4.14v-1.74h-4.14v-1.72h4.59zm10.21 5.35l.62 1.6h2.36l-3.66-8.69h-2.27l-3.75 8.69h2.27l.63-1.6h3.8zm-.64-1.68h-2.51l1.27-3.21 1.24 3.21zm9.66 3.28h2.51l-1.83-2.87c1.02-.51 1.58-1.46 1.58-2.79 0-1.94-1.31-3.03-3.61-3.03h-3.88v8.69h2.2v-2.45h1.74l1.29 2.45zm-3.03-4.19v-2.76h1.68c.95 0 1.51.46 1.51 1.36 0 .92-.56 1.4-1.51 1.4h-1.68zm13.42-2.72V56.4h-7.42v1.79h2.59v6.91h2.21v-6.91h2.62zm3.15 6.91v-8.69h-2.21v8.69h2.21zm5.07-8.79c-2.08 0-3.46 1.02-3.46 2.62 0 3.08 4.59 2.16 4.59 3.7 0 .49-.43.75-1.13.75-.9 0-2.24-.52-3.13-1.3l-.86 1.7c1.03.85 2.52 1.39 3.97 1.39 1.94 0 3.47-.92 3.47-2.65 0-3.14-4.59-2.29-4.59-3.79 0-.42.39-.63.96-.63.71 0 1.86.37 2.78.9l.83-1.72c-.89-.58-2.17-.97-3.43-.97zm11.3 1.88V56.4h-7.42v1.79h2.59v6.91h2.21v-6.91h2.62zm4.28-1.88c-2.09 0-3.46 1.02-3.46 2.62 0 3.08 4.59 2.16 4.59 3.7 0 .49-.44.75-1.13.75-.91 0-2.25-.52-3.14-1.3l-.86 1.7c1.03.85 2.52 1.39 3.97 1.39 1.94 0 3.48-.92 3.48-2.65 0-3.14-4.59-2.29-4.59-3.79 0-.42.38-.63.95-.63.71 0 1.86.37 2.78.9l.83-1.72c-.89-.58-2.17-.97-3.42-.97z"/></g></svg>